#N canvas 34 22 1813 900 12;
#X obj 78 327 dac~;
#X obj 77 69 bng 15 250 50 0 empty empty empty 17 7 0 10 -262144 -1
-1;
#X obj 77 257 osc~;
#X floatatom 77 213 5 0 0 0 - - -;
#X msg 17 131 0;
#X obj 154 128 delay 1000;
#X obj 260 128 delay 2000;
#X obj 362 126 delay 3000;
#X obj 465 125 delay 4000;
#X obj 558 124 delay 5000;
#X obj 648 124 delay 6000;
#X obj 744 123 delay 7000;
#X msg 77 130 261.63;
#X msg 154 181 277.18;
#X msg 260 176 311.13;
#X msg 362 175 349.23;
#X msg 465 172 392;
#X msg 558 170 415.3;
#X msg 648 169 466.16;
#X obj 83 722 dac~;
#X obj 82 464 bng 15 250 50 0 empty empty empty 17 7 0 10 -262144 -1
-1;
#X obj 82 652 osc~;
#X floatatom 82 608 5 0 0 0 - - -;
#X msg 22 526 0;
#X obj 159 523 delay 1000;
#X obj 265 523 delay 2000;
#X obj 367 521 delay 3000;
#X msg 744 169 523.25;
#X msg 82 525 329.63;
#X msg 159 576 415.3;
#X msg 367 570 659.25;
#X msg 265 571 493.88;
#X obj 86 1115 dac~;
#X obj 85 857 bng 15 250 50 0 empty empty empty 17 7 0 10 -262144 -1
-1;
#X obj 85 1045 osc~;
#X floatatom 85 1001 5 0 0 0 - - -;
#X msg 25 919 0;
#X obj 162 916 delay 1000;
#X obj 268 916 delay 2000;
#X obj 370 914 delay 3000;
#X msg 85 919 220;
#X msg 162 969 277.18;
#X msg 268 964 329.63;
#X msg 370 963 415.3;
#X obj 946 345 dac~;
#X obj 945 87 bng 15 250 50 0 empty empty empty 17 7 0 10 -262144 -1
-1;
#X obj 945 275 osc~;
#X floatatom 945 231 5 0 0 0 - - -;
#X msg 885 149 0;
#X obj 1022 146 delay 1000;
#X obj 1128 146 delay 2000;
#X obj 1230 144 delay 3000;
#X obj 1333 143 delay 4000;
#X obj 1426 142 delay 5000;
#X obj 1516 142 delay 6000;
#X obj 1612 141 delay 7000;
#X msg 1612 187 523.25;
#X msg 945 148 261.63;
#X msg 1022 199 293.66;
#X msg 1128 194 329.63;
#X msg 1230 193 349.23;
#X msg 1333 190 392;
#X msg 1426 188 440;
#X msg 1516 187 493.88;
#X obj 940 724 dac~;
#X obj 939 466 bng 15 250 50 0 empty empty empty 17 7 0 10 -262144
-1 -1;
#X obj 939 654 osc~;
#X floatatom 939 610 5 0 0 0 - - -;
#X msg 879 528 0;
#X obj 1016 525 delay 1000;
#X obj 1122 525 delay 2000;
#X obj 1224 523 delay 3000;
#X obj 1327 522 delay 4000;
#X obj 1420 521 delay 5000;
#X msg 1420 567 440;
#X msg 939 527 220;
#X msg 1016 578 246.94;
#X msg 1122 573 277.18;
#X msg 1224 572 329.63;
#X msg 1327 569 369.99;
#X obj 934 1124 dac~;
#X obj 933 866 bng 15 250 50 0 empty empty empty 17 7 0 10 -262144
-1 -1;
#X obj 933 1054 osc~;
#X floatatom 933 1010 5 0 0 0 - - -;
#X msg 873 928 0;
#X obj 1010 925 delay 1000;
#X obj 1116 925 delay 2000;
#X obj 1218 923 delay 3000;
#X obj 1321 922 delay 4000;
#X msg 933 927 261.63;
#X msg 1010 978 293.66;
#X msg 1116 973 329.63;
#X msg 1218 970 349.23;
#X msg 1321 969 392;
#X text 10 33 Click to mute \, AFTER all notes have been played;
#X text 6 433 Click to mute \, AFTER all notes have been played;
#X text 94 65 <- Click to start playing scale;
#X text 98 460 <- Click to start playing scale;
#X text 413 12 Scale 1;
#X text 234 400 Scale 2;
#X text 223 796 Scale 3;
#X text 10 823 Click to mute \, AFTER all notes have been played;
#X text 1284 30 Scale 4;
#X text 103 854 <- Click to start playing scale;
#X text 963 83 <- Click to start playing scale;
#X text 859 55 Click to mute \, AFTER all notes have been played;
#X text 866 435 Click to mute \, AFTER all notes have been played;
#X text 1183 398 Scale 5;
#X text 956 463 <- Click to start playing scale;
#X text 1159 800 Scale 6;
#X text 950 862 <- Click to start playing scale;
#X text 864 832 Click to mute \, AFTER all notes have been played;
#X text 26 117 ^;
#X text 26 107 ^;
#X text 26 97 ^;
#X text 26 87 ^;
#X text 26 80 ^;
#X text 26 68 ^;
#X text 26 58 ^;
#X text 26 49 ^;
#X text 31 513 ^;
#X text 31 503 ^;
#X text 31 493 ^;
#X text 31 483 ^;
#X text 31 476 ^;
#X text 31 464 ^;
#X text 31 454 ^;
#X text 31 448 ^;
#X text 35 906 ^;
#X text 35 896 ^;
#X text 35 886 ^;
#X text 35 876 ^;
#X text 35 869 ^;
#X text 35 857 ^;
#X text 35 847 ^;
#X text 35 841 ^;
#X text 894 135 ^;
#X text 894 125 ^;
#X text 894 115 ^;
#X text 894 105 ^;
#X text 894 98 ^;
#X text 894 86 ^;
#X text 894 76 ^;
#X text 894 70 ^;
#X text 887 515 ^;
#X text 887 505 ^;
#X text 887 495 ^;
#X text 887 485 ^;
#X text 887 478 ^;
#X text 887 466 ^;
#X text 887 456 ^;
#X text 887 450 ^;
#X text 883 915 ^;
#X text 883 905 ^;
#X text 883 895 ^;
#X text 883 885 ^;
#X text 883 878 ^;
#X text 883 866 ^;
#X text 883 856 ^;
#X text 883 850 ^;
#X connect 1 0 12 0;
#X connect 1 0 5 0;
#X connect 1 0 6 0;
#X connect 1 0 7 0;
#X connect 1 0 8 0;
#X connect 1 0 9 0;
#X connect 1 0 10 0;
#X connect 1 0 11 0;
#X connect 2 0 0 0;
#X connect 2 0 0 1;
#X connect 3 0 2 0;
#X connect 4 0 3 0;
#X connect 5 0 13 0;
#X connect 6 0 14 0;
#X connect 7 0 15 0;
#X connect 8 0 16 0;
#X connect 9 0 17 0;
#X connect 10 0 18 0;
#X connect 11 0 27 0;
#X connect 12 0 3 0;
#X connect 13 0 3 0;
#X connect 14 0 3 0;
#X connect 15 0 3 0;
#X connect 16 0 3 0;
#X connect 17 0 3 0;
#X connect 18 0 3 0;
#X connect 20 0 28 0;
#X connect 20 0 24 0;
#X connect 20 0 25 0;
#X connect 20 0 26 0;
#X connect 21 0 19 0;
#X connect 21 0 19 1;
#X connect 22 0 21 0;
#X connect 23 0 22 0;
#X connect 24 0 29 0;
#X connect 25 0 31 0;
#X connect 26 0 30 0;
#X connect 27 0 3 0;
#X connect 28 0 22 0;
#X connect 29 0 22 0;
#X connect 30 0 22 0;
#X connect 31 0 22 0;
#X connect 33 0 40 0;
#X connect 33 0 37 0;
#X connect 33 0 38 0;
#X connect 33 0 39 0;
#X connect 34 0 32 0;
#X connect 34 0 32 1;
#X connect 35 0 34 0;
#X connect 36 0 35 0;
#X connect 37 0 41 0;
#X connect 38 0 42 0;
#X connect 39 0 43 0;
#X connect 40 0 35 0;
#X connect 41 0 35 0;
#X connect 42 0 35 0;
#X connect 43 0 35 0;
#X connect 45 0 57 0;
#X connect 45 0 49 0;
#X connect 45 0 50 0;
#X connect 45 0 51 0;
#X connect 45 0 52 0;
#X connect 45 0 53 0;
#X connect 45 0 54 0;
#X connect 45 0 55 0;
#X connect 46 0 44 0;
#X connect 46 0 44 1;
#X connect 47 0 46 0;
#X connect 48 0 47 0;
#X connect 49 0 58 0;
#X connect 50 0 59 0;
#X connect 51 0 60 0;
#X connect 52 0 61 0;
#X connect 53 0 62 0;
#X connect 54 0 63 0;
#X connect 55 0 56 0;
#X connect 56 0 47 0;
#X connect 57 0 47 0;
#X connect 58 0 47 0;
#X connect 59 0 47 0;
#X connect 60 0 47 0;
#X connect 61 0 47 0;
#X connect 62 0 47 0;
#X connect 63 0 47 0;
#X connect 65 0 75 0;
#X connect 65 0 69 0;
#X connect 65 0 70 0;
#X connect 65 0 71 0;
#X connect 65 0 72 0;
#X connect 65 0 73 0;
#X connect 66 0 64 0;
#X connect 66 0 64 1;
#X connect 67 0 66 0;
#X connect 68 0 67 0;
#X connect 69 0 76 0;
#X connect 70 0 77 0;
#X connect 71 0 78 0;
#X connect 72 0 79 0;
#X connect 73 0 74 0;
#X connect 74 0 67 0;
#X connect 75 0 67 0;
#X connect 76 0 67 0;
#X connect 77 0 67 0;
#X connect 78 0 67 0;
#X connect 79 0 67 0;
#X connect 81 0 89 0;
#X connect 81 0 85 0;
#X connect 81 0 86 0;
#X connect 81 0 87 0;
#X connect 81 0 88 0;
#X connect 82 0 80 0;
#X connect 82 0 80 1;
#X connect 83 0 82 0;
#X connect 84 0 83 0;
#X connect 85 0 90 0;
#X connect 86 0 91 0;
#X connect 87 0 92 0;
#X connect 88 0 93 0;
#X connect 89 0 83 0;
#X connect 90 0 83 0;
#X connect 91 0 83 0;
#X connect 92 0 83 0;
#X connect 93 0 83 0;
